<?xml version="1.0" encoding="UTF-8" standalone="no"?>
<svg
   xmlns:dc="http://purl.org/dc/elements/1.1/"
   xmlns:cc="http://creativecommons.org/ns#"
   xmlns:rdf="http://www.w3.org/1999/02/22-rdf-syntax-ns#"
   xmlns:svg="http://www.w3.org/2000/svg"
   xmlns="http://www.w3.org/2000/svg"
   xmlns:sodipodi="http://sodipodi.sourceforge.net/DTD/sodipodi-0.dtd"
   xmlns:inkscape="http://www.inkscape.org/namespaces/inkscape"
   viewBox="0 0 24 24"
   version="1.1"
   id="svg9"
   sodipodi:docname="github-light.svg"
   inkscape:version="0.92.5 (2060ec1f9f, 2020-04-08)">
  <defs
     id="defs13" />
  <sodipodi:namedview
     pagecolor="#ffffff"
     bordercolor="#666666"
     borderopacity="1"
     objecttolerance="10"
     gridtolerance="10"
     guidetolerance="10"
     inkscape:pageopacity="0"
     inkscape:pageshadow="2"
     inkscape:window-width="640"
     inkscape:window-height="480"
     id="namedview11"
     showgrid="false"
     inkscape:zoom="9.8333333"
     inkscape:cx="12"
     inkscape:cy="12"
     inkscape:window-x="217"
     inkscape:window-y="111"
     inkscape:window-maximized="0"
     inkscape:current-layer="svg9" />
  <title
     id="title2">Github 1</title>
  <g
     id="Github_1"
     data-name="Github 1"
     style="fill:#f2f2f2">
    <path
       d="M12,0A12,12,0,0,0,0,12,12.25,12.25,0,0,0,9.39,24,.5.5,0,0,0,10,23.5v-3a.5.5,0,0,0-.5-.5h-1c-1.25,0-2.1-1.18-2.85-2.23l-.23-.32a7.53,7.53,0,0,1,1,.64,3.59,3.59,0,0,0,2.05.9h.15A1.37,1.37,0,0,0,10,17.5v-.35a.5.5,0,0,0-.36-.48C6.86,15.88,5,13.81,5,11.5A4.74,4.74,0,0,1,6.43,8.19a.5.5,0,0,0,.09-.56,2.8,2.8,0,0,1,.15-2.55A4.91,4.91,0,0,1,8.5,6.37a.5.5,0,0,0,.55.15,8.68,8.68,0,0,1,5.89,0,.5.5,0,0,0,.55-.15,4.91,4.91,0,0,1,1.83-1.29,2.8,2.8,0,0,1,.15,2.55.5.5,0,0,0,.09.56A4.74,4.74,0,0,1,19,11.5c0,2.42-2.07,4.59-5,5.27a.5.5,0,0,0-.33.72,4.3,4.3,0,0,1,.36,2v4a.5.5,0,0,0,.5.5h.11A12.25,12.25,0,0,0,24,12,12,12,0,0,0,12,0Z"
       style="fill:#f2f2f2"
       id="path4" />
  </g>
  <metadata
     id="metadata7">
    <rdf:RDF>
      <rdf:Description
         about="https://iconscout.com/legal#licenses"
         dc:title="social; media; social media; logo; github"
         dc:description="social; media; social media; logo; github"
         dc:publisher="Iconscout"
         dc:date="2017-02-21"
         dc:format="image/svg+xml"
         dc:language="en">
        <dc:creator>
          <rdf:Bag>
            <rdf:li>Alpár - Etele Méder</rdf:li>
          </rdf:Bag>
        </dc:creator>
      </rdf:Description>
      <cc:Work
         rdf:about="">
        <dc:format>image/svg+xml</dc:format>
        <dc:type
           rdf:resource="http://purl.org/dc/dcmitype/StillImage" />
        <dc:title>Github 1</dc:title>
      </cc:Work>
    </rdf:RDF>
  </metadata>
</svg>
